<svg width="50" height="56" viewBox="0 0 50 56" fill="none" xmlns="http://www.w3.org/2000/svg">
<path fill-rule="evenodd" clip-rule="evenodd" d="M50 4.13284L45.8333 41.3284L25 56L4.16667 41.3284L0 4.13284L25 0L50 4.13284ZM25 4.18985L45.4231 7.56607L43.5332 24.4368C42.5583 24.7323 41.7945 24.984 41.159 25.1936C40.246 25.4948 39.6854 25.6785 39.1221 25.8079C38.275 26.0026 37.3548 26.0901 35.2515 26.0727C34.3855 21.3511 30.2184 17.7712 25.2083 17.7712C20.1999 17.7712 16.0339 21.3488 15.166 26.0681C12.7629 26.1009 11.779 26.015 10.8779 25.8079C10.3146 25.6785 9.75402 25.4948 8.84105 25.1936C8.20545 24.984 7.44166 24.7323 6.46677 24.4368L4.5769 7.56607L25 4.18985ZM15.2654 30.2004C12.7504 30.237 11.3335 30.1549 9.93769 29.8342C9.17104 29.658 8.43579 29.4154 7.60462 29.1412L7.52614 29.1153C7.34977 29.0571 7.16523 28.9963 6.97039 28.9326L8.10161 39.031L25 50.9314L41.8984 39.031L43.0296 28.9326C42.8348 28.9963 42.6502 29.0571 42.4739 29.1153L42.3954 29.1412C41.5642 29.4154 40.829 29.658 40.0623 29.8342C38.7453 30.1368 37.4094 30.227 35.1501 30.2054C34.0968 34.6851 30.0455 38.0221 25.2083 38.0221C20.3694 38.0221 16.3168 34.6826 15.2654 30.2004ZM31.25 27.8967C31.25 31.2063 28.5451 33.8893 25.2083 33.8893C21.8716 33.8893 19.1667 31.2063 19.1667 27.8967C19.1667 24.587 21.8716 21.9041 25.2083 21.9041C28.5451 21.9041 31.25 24.587 31.25 27.8967Z" fill="#9233e7"/>
</svg>
